<svg
  xmlns="http://www.w3.org/2000/svg"
  viewBox="0 0 502 502"
  overflow="visible"
  width="502"
  height="502"
  class="logo"
>
  <defs>
    <clipPath id="cut-off-overflow">
      <circle
        r="251.430908203125"
        cx="253.00000178813934"
        cy="251.99999260902405"
      />
    </clipPath>
  </defs>
  <g class="layer">
    <circle
      fill="#000000"
      cx="253.00000178813934"
      cy="251.99999260902405"
      r="251.430908203125"
    />
    <path
      fill="#444"
      d="M413.9,378.29999999999995 L437.79999999999995,315.7 C441.79999999999995,305.2 434.1,294 422.79999999999995,294 L364.29999999999995,294 C375.29999999999995,275.1 382.1,253.39999999999998 382.1,230 L382.1,229.7 C421.29999999999995,221.89999999999998 446.1,210.60000000000002 446.1,198 C446.1,184.7 418.79999999999995,172.89999999999998 376,165 C366.79999999999995,132.2 349,99.19999999999999 335.4,82.19999999999999 C325.9,70.30000000000001 309.5,66.6 295.9,73.4 L268.29999999999995,87.19999999999999 C259.3,91.69999999999999 248.7,91.69999999999999 239.7,87.19999999999999 L212.10000000000002,73.4 C198.5,66.6 182.10000000000002,70.30000000000001 172.60000000000002,82.19999999999999 C159.10000000000002,99.19999999999999 141.2,132.2 132,165 C89.30000000000001,172.89999999999998 62,184.7 62,198 C62,210.60000000000002 86.80000000000001,221.89999999999998 126,229.7 L126,230 C126,253.39999999999998 132.8,275.1 143.8,294 L86.30000000000001,294 C74.80000000000001,294 67.10000000000002,305.7 71.60000000000002,316.3 L97.39999999999998,376.5 C57.30000000000001,399.79999999999995 30,442.70000000000005 30,492.4 L30,537.2 C30,561.9 50.10000000000002,582 74.80000000000001,582 L433.20000000000005,582 C457.9,582 478,561.9 478,537.2 L478,492.4 C478,444 452.20000000000005,402 413.9,378.29999999999995 zM206,550 L164.39999999999998,358 L214,390 L238,430 L206,550 zM302,550 L270,430 L294,390 L343.6,358 L302,550 zM343.70000000000005,251.5 C339.79999999999995,263.4 336.70000000000005,276.1 327.20000000000005,284.9 C317.1,294.2 279.20000000000005,307.3 263.2,259.9 C260.4,251.5 247.8,251.5 244.89999999999998,259.9 C227.89999999999998,310.1 188.89999999999998,292.3 180.89999999999998,284.9 C171.39999999999998,276.1 168.2,263.4 164.39999999999998,251.5 C163.60000000000002,249 158.10000000000002,245.8 158.10000000000002,245.7 L158.10000000000002,234.89999999999998 C186.39999999999998,238.5 219.10000000000002,240.7 254.10000000000002,240.7 S321.79999999999995,238.60000000000002 350.1,234.89999999999998 L350.1,245.7 C350,245.8 344.5,248.89999999999998 343.70000000000005,251.5 z"
      clip-path="url(#cut-off-overflow)"
    />
  </g>
</svg>
